<svg width="326" height="300" viewBox="0 0 326 300" fill="none" xmlns="http://www.w3.org/2000/svg">
<path d="M309.604 205.191C303.618 219.27 294.91 232.6 282.528 241.578C267.153 252.596 247.833 255.928 229.397 260.145C188.579 269.395 148.305 284.289 106.466 283.269C64.6279 282.181 19.2519 259.601 8.63922 219.134C-2.99392 174.858 29.8646 132.691 44.9673 89.4354C50.4097 73.9287 53.7431 57.2658 63.1993 43.7995C104.902 -15.6428 176.197 39.1747 225.723 53.4572C296.066 73.7247 341.034 131.059 309.604 205.191Z" fill="#353F5E"/>
<path d="M157.743 186.897C160.797 186.91 147.872 207.606 146.79 206.919C146.225 206.566 148.416 202.485 148.64 202.07C155.994 188.08 156.906 186.822 157.743 186.897Z" fill="#00C26D"/>
<path d="M175.6 205.423C175.73 200.472 174.512 192.297 176.138 192.167C178.396 191.984 178.22 212.585 176.301 212.428C175.662 212.374 175.58 206.117 175.6 205.43V205.423Z" fill="#00C26D"/>
<path d="M194.804 181.932C194.885 178.116 211.335 194.324 209.94 195.412C209.403 195.833 203.777 190.413 201.722 188.713C200.777 187.937 194.872 183.129 194.797 181.932H194.804Z" fill="#00C26D"/>
<path d="M184.157 113.988C183.708 117.055 176.653 125.503 174.395 127.767C172.796 129.366 172.102 128.345 172.476 127.597C173.796 124.979 184.239 111.064 184.157 113.988Z" fill="#00C26D"/>
<path d="M153.463 108.166C155.055 112.662 155.055 121.66 154.817 126.55C154.749 127.937 153.552 127.529 153.416 126.638C152.715 122.081 152.552 105.568 153.463 108.166Z" fill="#00C26D"/>
<path d="M122.074 134.473C119.557 133.426 109.869 125.278 108.91 124.346C103.434 119.014 127.782 134.766 122.074 134.473Z" fill="#00C26D"/>
<path d="M99.9493 223.847C103.895 217.046 112.1 210.517 116.018 206.266C120.807 201.07 122.011 194.017 122.971 189.848C126.263 175.566 143.999 164.962 137.345 162.256C124.964 157.216 120.222 186.495 108.344 177.803C107.82 177.422 107.936 177.286 108.501 177.177C110.902 176.701 112.855 179.306 116.1 176.164C122.413 170.057 122.032 168.588 125.576 164.752C122.726 164.752 121.229 164.486 117.726 166.091C110.923 169.206 112.154 168.758 109.895 169.247C108.337 169.587 106.882 168.057 108.909 167.941C111.099 167.812 114.147 165.962 116.998 164.527C119.63 163.194 122.011 163.453 126.488 163.541C127.529 163.561 133.549 156.658 139.692 162.283C141.142 163.609 139.42 165.69 140.223 165.847C144.196 166.608 146.72 167.275 146.189 169.485C145.666 171.668 143.557 172.117 141.373 172.621C140.482 172.757 139.577 172.702 138.713 172.451C138.216 172.349 136.733 171.267 138.971 171.444C140.645 171.539 142.318 171.206 143.836 170.485C144.999 169.975 145.761 168.404 144.618 168.037C142.985 167.71 141.373 167.282 139.788 166.758C139.203 166.527 139.522 166.785 136.856 170.526C136.012 171.709 135.1 172.838 134.121 173.906C133.706 174.219 133.971 173.92 138.087 178.334C139.06 179.374 138.393 180.836 136.917 181.272C136.216 181.462 135.502 181.591 134.781 181.659C132.175 181.959 129.216 178.885 130.597 179.129C132.141 179.395 133.366 181.387 136.924 180.109C138.713 179.463 136.529 178.714 133.692 174.94C133.502 174.688 133.42 174.77 133.27 174.94C131.202 177.327 129.284 179.85 127.529 182.476C123.236 189.161 124.345 196.023 119.991 203.233C116.372 209.225 111.787 211.074 102.079 222.432C101.575 223.017 103.562 223.548 103.154 225.078C100.657 234.457 89.6632 249.209 86.7311 250.787C82.935 252.827 94.6498 241.211 100.568 226.527C101.187 224.997 97.752 225.826 92.4184 219.181C82.7173 207.096 84.8467 203.389 83.2344 205.144C82.2207 206.252 79.792 209.17 71.7033 214.686C69.9481 215.883 63.6213 220.222 61.0702 220.481C60.9681 220.487 60.5191 220.283 60.8457 219.977C62.1314 218.76 67.2405 216.189 72.3564 212.115C83.7514 203.042 84.0371 200.948 86.7515 203.709C86.9828 203.94 87.7652 198.322 87.7992 198.077C89.6224 185.461 86.5542 184.631 86.5814 174.294C86.595 167.744 93.8743 162.63 99.099 158.542C99.9357 157.889 108.888 151.544 110.072 150.898C111.528 150.102 117.161 148.871 117.474 148.816C131.733 146.205 129.849 145.606 131.699 145.484C133.964 145.334 135.169 147.647 132.461 150.789C129.4 154.332 123.556 156.012 119.977 157.393C114.93 159.345 114.263 159.998 110.889 163.33C104.766 169.39 104.215 168.118 102.766 171.138C101.514 173.743 100.725 170.75 103.752 167.751C104.916 166.602 108.086 164.609 112.1 160.623C115.467 157.284 120.882 156.114 125.284 154.121C130.25 151.87 133.822 148.436 132.543 147.089C131.311 145.79 130.508 147.585 123.005 149.061C113.61 150.911 111.317 151.415 108.263 153.686C105.283 155.91 101.902 157.692 94.9695 163.405C80.0778 175.661 93.4389 177.939 88.2414 202.111C87.5543 205.307 86.3365 206.3 86.84 207.211C90.2142 213.482 94.6498 219.113 99.9629 223.854L99.9493 223.847Z" fill="white"/>
<path d="M153.577 151.816C154.318 149.816 155.829 145.838 156.618 143.097C156.795 142.485 156.686 142.553 152.216 141.22C147.679 139.866 147.937 139.839 148.08 140.628C148.196 141.226 148.141 141.852 147.917 142.423C147.692 142.995 147.311 143.484 146.815 143.845C146.318 144.205 145.733 144.416 145.121 144.457C144.509 144.498 143.896 144.362 143.366 144.063C138.944 141.818 143.257 138.458 142.345 138.152C138.386 136.833 136.569 136.554 135.372 136.221C134.767 136.051 135.168 136.139 132.358 143.423C131.984 144.389 131.522 144.743 130.61 144.743C130.222 144.743 130.147 144.613 130.283 144.26C133.719 135.153 133.243 134.432 135.182 134.827C145.25 136.874 144.91 136.86 143.474 139.057C140.563 143.498 147.379 144.341 147.039 141.002C147.012 140.716 145.971 137.493 148.121 138.193C155.863 140.71 155.815 140.71 157.55 141.417C158.788 141.92 158.237 142.233 156.747 146.987C155.176 152.006 154.516 154.366 153.305 152.979C148.366 147.361 145.679 155.659 151.917 155.189C155.128 154.951 152.005 158.393 149.726 165.69C148.89 168.37 148.917 167.459 141.57 165.112C141.223 165.003 141.08 164.867 141.175 164.466C141.386 163.555 141.366 163.541 142.277 163.868C148.053 165.956 148.175 166.268 148.461 165.473C151.883 155.999 152.108 156.291 151.325 156.366C149.917 156.502 147.631 155.829 147.162 153.911C146.359 150.571 149.999 147.613 153.591 151.816H153.577Z" fill="#00C26D"/>
<path d="M126.726 185.298C127.46 185.502 129.671 188.025 131.916 186.72C132.767 186.223 128.474 181.85 129.474 181.231C129.794 181.034 129.998 181.333 130.154 181.557C132.76 185.339 133.216 185.863 133.107 187.168C132.91 189.454 126.12 188.617 126.726 185.291V185.298Z" fill="white"/>
<path d="M130.441 159.787C129.685 160.508 129.053 160.936 128.209 160.467C125.719 159.066 124.719 160.331 126.236 156.271C126.522 155.509 128.202 154.577 127.924 155.461C126.971 158.454 126.787 158.399 127.549 158.665C128.522 158.998 129.468 159.406 130.447 159.794L130.441 159.787Z" fill="#00C26D"/>
<path d="M131.686 168.2C131.659 167.071 133.781 164.827 134.666 163.902C135.087 163.453 136.462 163.14 133.543 166.928C132.169 168.717 133.822 170.642 133.584 170.893C133.319 171.179 132.012 170.825 131.693 168.2H131.686Z" fill="white"/>
<path d="M205.756 104.473C218.92 105.656 233.301 114.913 237.404 121.68C237.785 122.306 237.662 121.496 240.832 115.498C241.846 113.573 242.717 111.574 243.724 109.642C249.588 98.3792 256.547 92.4894 250.751 101.372C239.574 118.531 239.9 126.264 234.526 123.863C234.193 123.754 233.88 123.578 233.608 123.36C233.458 123.503 233.526 123.666 233.519 123.816C233.159 147.246 239.451 140.669 215.28 159.447C212.375 161.705 210.6 163.364 207.11 163.201C205.919 163.147 202.042 162.514 202.219 161.603C202.511 160.086 207.389 163.48 211.443 160.426C231.927 145.022 232.505 144.58 232.574 140.111C232.676 133.222 231.56 125.618 233.043 119.606C233.254 118.742 224.145 111.893 215.532 108.493C209.545 106.126 209.6 106.466 209.273 106.901C206.906 110.104 202.103 121.544 193.769 132.399C185.619 143.015 178.789 147.538 176.299 151.34C175.183 153.033 181.748 156.522 193.109 146.885C195.191 145.117 205.13 134.738 211.008 136.527C213.688 137.343 211.94 140.785 210.185 142.934C202.314 152.605 188.585 155.414 187.3 166.207C187.232 166.915 187.3 167.636 187.524 168.316C188.334 171.036 192.565 165.799 196.865 162.684C207.695 154.843 214.75 155.189 227.322 141.533C227.737 141.084 228.029 141.499 227.805 141.886C225.682 144.858 223.158 147.518 220.308 149.796C212.253 156.38 201.783 159.712 194.96 165.854C191.49 168.975 190.653 169.499 189.49 170.009C186.68 171.22 185.51 167.88 186.252 164.711C188.538 154.945 200.191 151.34 207.334 144.151C213.375 138.064 211.389 135.942 205.79 138.533C197.45 142.396 188.694 156.339 177.952 154.353C176.034 153.999 174.02 152.564 175.047 150.619C176.796 147.293 186.374 140.043 192.681 131.562C202.205 118.762 200.348 118.939 207.28 108.098C207.566 107.649 205.729 107.078 204.436 105.793C203.035 104.405 216.015 82.9405 218.267 80.0636C220.315 77.4452 221.349 77.5608 220.852 78.3973C207.729 100.46 206.967 103.194 205.749 104.487L205.756 104.473Z" fill="white"/>
<path d="M168.538 172.934C155.333 169.078 158.966 172.675 161.238 160.141C161.381 159.338 160.83 160.134 159.088 159.76C154.612 158.801 155.979 152.231 160.163 153.142C163.98 153.972 162.19 156.856 163.435 152.095C164.857 146.654 164.449 146.851 165.15 146.742C166.571 146.858 167.973 147.144 169.327 147.586C173.096 148.783 174.776 148.776 173.545 150.218C170.912 153.319 174.17 157.373 176.524 155.55C178.375 154.115 178.035 156.958 175.776 157.237C172.102 157.692 170.327 153.251 171.878 150.626C172.068 150.313 172.102 150.041 171.646 149.891C169.898 149.306 168.123 148.81 166.32 148.422C164.864 148.109 164.66 156.604 163.17 156.591C162.449 156.584 162.476 154.421 159.456 154.237C157.006 154.088 156.551 158.706 159.905 158.74C161.422 158.753 163.306 157.774 162.803 159.733C160.428 168.935 160.292 168.826 160.973 169.044C164.075 169.846 167.136 170.812 170.136 171.927C172 172.716 169.163 173.383 168.572 175.348C167.361 179.402 173.184 179.708 173.715 176.389C173.946 174.954 172.681 172.845 174.511 173.342C183.511 175.749 183.559 175.94 183.831 176.008C184.769 176.239 184.354 176.294 185.776 172.43C186.219 171.227 183.429 172.879 181.64 170.091C181.273 169.581 181.048 168.975 180.987 168.35C180.933 167.724 181.048 167.092 181.32 166.52C181.592 165.949 182.014 165.466 182.545 165.119C183.069 164.772 183.681 164.568 184.314 164.541C185.014 164.466 185.872 165.242 184.395 165.582C180.538 166.452 181.865 171.533 186.613 170.676C187.933 170.438 187.708 171.063 186.402 174.933C185.599 177.307 185.606 177.933 184.123 177.463C182.422 176.933 183.457 177.361 175.116 174.743C173.973 174.382 176.211 177.021 173.531 179.116C171.197 180.939 166.68 179.925 167.225 175.675C167.333 174.641 167.796 173.675 168.538 172.941V172.934Z" fill="#00C26D"/>
<path d="M180.136 151.687C179.476 152 178.918 151.51 179.619 150.918C181.905 148.994 182.987 148.674 182.014 146.851C181.871 146.586 181.619 146.3 181.966 146.055C182.769 145.498 185.783 148.987 180.136 151.687Z" fill="white"/>
<path d="M190.355 154.775C190.437 154.809 190.505 154.857 190.566 154.918C190.628 154.979 190.668 155.054 190.696 155.135C190.723 155.217 190.736 155.306 190.73 155.387C190.723 155.476 190.696 155.557 190.655 155.632C190.376 156.394 189.818 156.054 186.28 154.959C186.015 154.877 185.634 154.857 185.682 154.421C185.859 152.856 188.906 154.122 190.355 154.775Z" fill="#00C26D"/>
<path d="M193.321 163.813C192.613 163.453 192.212 164.031 191.776 164.493C190.974 165.344 190.069 166.099 189.348 167.024C189.014 167.452 188.484 167.275 188.695 166.629C189.504 165.439 190.457 164.357 191.525 163.398C193.185 161.753 194.654 163.97 193.321 163.813Z" fill="white"/>
</svg>
